<mxfile host="app.diagrams.net" agent="Mozilla/5.0 (Macintosh; Intel Mac OS X 10_15_7) AppleWebKit/605.1.15 (KHTML, like Gecko) Version/18.6 Safari/605.1.15" version="28.1.1">
  <diagram name="Page-1" id="8eR7TxyeBglMtWEwO8m1">
    <mxGraphModel dx="1018" dy="697" grid="1" gridSize="10" guides="1" tooltips="1" connect="1" arrows="1" fold="1" page="1" pageScale="1" pageWidth="827" pageHeight="1169" math="0" shadow="0">
      <root>
        <mxCell id="0" />
        <mxCell id="1" parent="0" />
        <mxCell id="mBPwHPOisGUMl75ZWg9b-5" style="edgeStyle=orthogonalEdgeStyle;rounded=0;orthogonalLoop=1;jettySize=auto;html=1;exitX=0.5;exitY=1;exitDx=0;exitDy=0;entryX=0.5;entryY=0;entryDx=0;entryDy=0;" edge="1" parent="1" source="mBPwHPOisGUMl75ZWg9b-1" target="mBPwHPOisGUMl75ZWg9b-3">
          <mxGeometry relative="1" as="geometry" />
        </mxCell>
        <mxCell id="mBPwHPOisGUMl75ZWg9b-1" value="início da função" style="ellipse;whiteSpace=wrap;html=1;aspect=fixed;" vertex="1" parent="1">
          <mxGeometry x="60" y="110" width="80" height="80" as="geometry" />
        </mxCell>
        <mxCell id="mBPwHPOisGUMl75ZWg9b-6" style="edgeStyle=orthogonalEdgeStyle;rounded=0;orthogonalLoop=1;jettySize=auto;html=1;exitX=0.5;exitY=1;exitDx=0;exitDy=0;entryX=0.5;entryY=0;entryDx=0;entryDy=0;" edge="1" parent="1" source="mBPwHPOisGUMl75ZWg9b-3" target="mBPwHPOisGUMl75ZWg9b-4">
          <mxGeometry relative="1" as="geometry" />
        </mxCell>
        <mxCell id="mBPwHPOisGUMl75ZWg9b-8" style="edgeStyle=orthogonalEdgeStyle;rounded=0;orthogonalLoop=1;jettySize=auto;html=1;exitX=1;exitY=0.5;exitDx=0;exitDy=0;entryX=0;entryY=0.5;entryDx=0;entryDy=0;" edge="1" parent="1" source="mBPwHPOisGUMl75ZWg9b-3" target="mBPwHPOisGUMl75ZWg9b-33">
          <mxGeometry relative="1" as="geometry" />
        </mxCell>
        <mxCell id="mBPwHPOisGUMl75ZWg9b-3" value="verifica tamanho dos fatores" style="ellipse;whiteSpace=wrap;html=1;aspect=fixed;" vertex="1" parent="1">
          <mxGeometry x="60" y="230" width="80" height="80" as="geometry" />
        </mxCell>
        <mxCell id="mBPwHPOisGUMl75ZWg9b-4" value="retorna produto simples" style="ellipse;whiteSpace=wrap;html=1;aspect=fixed;" vertex="1" parent="1">
          <mxGeometry x="60" y="350" width="80" height="80" as="geometry" />
        </mxCell>
        <mxCell id="mBPwHPOisGUMl75ZWg9b-37" style="edgeStyle=orthogonalEdgeStyle;rounded=0;orthogonalLoop=1;jettySize=auto;html=1;exitX=0.5;exitY=0;exitDx=0;exitDy=0;entryX=0.5;entryY=1;entryDx=0;entryDy=0;" edge="1" parent="1" source="mBPwHPOisGUMl75ZWg9b-7" target="mBPwHPOisGUMl75ZWg9b-9">
          <mxGeometry relative="1" as="geometry" />
        </mxCell>
        <mxCell id="mBPwHPOisGUMl75ZWg9b-7" value="primeira metade de numero1" style="ellipse;whiteSpace=wrap;html=1;aspect=fixed;" vertex="1" parent="1">
          <mxGeometry x="300" y="350" width="80" height="80" as="geometry" />
        </mxCell>
        <mxCell id="mBPwHPOisGUMl75ZWg9b-38" style="edgeStyle=orthogonalEdgeStyle;rounded=0;orthogonalLoop=1;jettySize=auto;html=1;exitX=1;exitY=0.5;exitDx=0;exitDy=0;entryX=0;entryY=0.5;entryDx=0;entryDy=0;" edge="1" parent="1" source="mBPwHPOisGUMl75ZWg9b-9" target="mBPwHPOisGUMl75ZWg9b-11">
          <mxGeometry relative="1" as="geometry" />
        </mxCell>
        <mxCell id="mBPwHPOisGUMl75ZWg9b-9" value="segunda metade do numero1" style="ellipse;whiteSpace=wrap;html=1;aspect=fixed;" vertex="1" parent="1">
          <mxGeometry x="300" y="230" width="80" height="80" as="geometry" />
        </mxCell>
        <mxCell id="mBPwHPOisGUMl75ZWg9b-39" style="edgeStyle=orthogonalEdgeStyle;rounded=0;orthogonalLoop=1;jettySize=auto;html=1;exitX=0.5;exitY=1;exitDx=0;exitDy=0;entryX=0.5;entryY=0;entryDx=0;entryDy=0;" edge="1" parent="1" source="mBPwHPOisGUMl75ZWg9b-11" target="mBPwHPOisGUMl75ZWg9b-13">
          <mxGeometry relative="1" as="geometry" />
        </mxCell>
        <mxCell id="mBPwHPOisGUMl75ZWg9b-11" value="primeira metade do numero2" style="ellipse;whiteSpace=wrap;html=1;aspect=fixed;" vertex="1" parent="1">
          <mxGeometry x="420" y="230" width="80" height="80" as="geometry" />
        </mxCell>
        <mxCell id="mBPwHPOisGUMl75ZWg9b-40" style="edgeStyle=orthogonalEdgeStyle;rounded=0;orthogonalLoop=1;jettySize=auto;html=1;exitX=1;exitY=0.5;exitDx=0;exitDy=0;entryX=0;entryY=0.5;entryDx=0;entryDy=0;" edge="1" parent="1" source="mBPwHPOisGUMl75ZWg9b-13" target="mBPwHPOisGUMl75ZWg9b-21">
          <mxGeometry relative="1" as="geometry" />
        </mxCell>
        <mxCell id="mBPwHPOisGUMl75ZWg9b-13" value="segunda metade do numero2" style="ellipse;whiteSpace=wrap;html=1;aspect=fixed;" vertex="1" parent="1">
          <mxGeometry x="420" y="350" width="80" height="80" as="geometry" />
        </mxCell>
        <mxCell id="mBPwHPOisGUMl75ZWg9b-19" value="&lt;font style=&quot;font-size: 8px;&quot;&gt;ambos menores que 4 dígitos?&lt;/font&gt;" style="text;html=1;align=center;verticalAlign=middle;resizable=0;points=[];autosize=1;strokeColor=none;fillColor=none;" vertex="1" parent="1">
          <mxGeometry x="95" y="310" width="130" height="30" as="geometry" />
        </mxCell>
        <mxCell id="mBPwHPOisGUMl75ZWg9b-41" style="edgeStyle=orthogonalEdgeStyle;rounded=0;orthogonalLoop=1;jettySize=auto;html=1;exitX=0.5;exitY=0;exitDx=0;exitDy=0;entryX=0.5;entryY=1;entryDx=0;entryDy=0;" edge="1" parent="1" source="mBPwHPOisGUMl75ZWg9b-21" target="mBPwHPOisGUMl75ZWg9b-22">
          <mxGeometry relative="1" as="geometry" />
        </mxCell>
        <mxCell id="mBPwHPOisGUMl75ZWg9b-46" style="edgeStyle=orthogonalEdgeStyle;rounded=0;orthogonalLoop=1;jettySize=auto;html=1;exitX=0.5;exitY=1;exitDx=0;exitDy=0;entryX=0;entryY=0.5;entryDx=0;entryDy=0;strokeColor=light-dark(#000000,#FF0000);" edge="1" parent="1" source="mBPwHPOisGUMl75ZWg9b-21" target="mBPwHPOisGUMl75ZWg9b-1">
          <mxGeometry relative="1" as="geometry" />
        </mxCell>
        <mxCell id="mBPwHPOisGUMl75ZWg9b-21" value="a x c" style="ellipse;whiteSpace=wrap;html=1;aspect=fixed;" vertex="1" parent="1">
          <mxGeometry x="540" y="350" width="80" height="80" as="geometry" />
        </mxCell>
        <mxCell id="mBPwHPOisGUMl75ZWg9b-42" style="edgeStyle=orthogonalEdgeStyle;rounded=0;orthogonalLoop=1;jettySize=auto;html=1;exitX=1;exitY=0.5;exitDx=0;exitDy=0;entryX=0;entryY=0.5;entryDx=0;entryDy=0;" edge="1" parent="1" source="mBPwHPOisGUMl75ZWg9b-22" target="mBPwHPOisGUMl75ZWg9b-25">
          <mxGeometry relative="1" as="geometry" />
        </mxCell>
        <mxCell id="mBPwHPOisGUMl75ZWg9b-44" style="edgeStyle=orthogonalEdgeStyle;rounded=0;orthogonalLoop=1;jettySize=auto;html=1;exitX=0.5;exitY=0;exitDx=0;exitDy=0;entryX=1;entryY=0.5;entryDx=0;entryDy=0;strokeColor=light-dark(#000000,#FF0000);" edge="1" parent="1" source="mBPwHPOisGUMl75ZWg9b-22" target="mBPwHPOisGUMl75ZWg9b-1">
          <mxGeometry relative="1" as="geometry" />
        </mxCell>
        <mxCell id="mBPwHPOisGUMl75ZWg9b-22" value="b x d" style="ellipse;whiteSpace=wrap;html=1;aspect=fixed;" vertex="1" parent="1">
          <mxGeometry x="540" y="230" width="80" height="80" as="geometry" />
        </mxCell>
        <mxCell id="mBPwHPOisGUMl75ZWg9b-43" style="edgeStyle=orthogonalEdgeStyle;rounded=0;orthogonalLoop=1;jettySize=auto;html=1;exitX=0.5;exitY=1;exitDx=0;exitDy=0;entryX=0.5;entryY=0;entryDx=0;entryDy=0;" edge="1" parent="1" source="mBPwHPOisGUMl75ZWg9b-25" target="mBPwHPOisGUMl75ZWg9b-30">
          <mxGeometry relative="1" as="geometry" />
        </mxCell>
        <mxCell id="mBPwHPOisGUMl75ZWg9b-45" style="edgeStyle=orthogonalEdgeStyle;rounded=0;orthogonalLoop=1;jettySize=auto;html=1;exitX=0.5;exitY=0;exitDx=0;exitDy=0;entryX=0.5;entryY=0;entryDx=0;entryDy=0;strokeColor=light-dark(#000000,#FF0000);" edge="1" parent="1" source="mBPwHPOisGUMl75ZWg9b-25" target="mBPwHPOisGUMl75ZWg9b-1">
          <mxGeometry relative="1" as="geometry" />
        </mxCell>
        <mxCell id="mBPwHPOisGUMl75ZWg9b-25" value="&lt;font style=&quot;font-size: 11px;&quot;&gt;(a x d) + (b x c)&lt;/font&gt;" style="ellipse;whiteSpace=wrap;html=1;aspect=fixed;" vertex="1" parent="1">
          <mxGeometry x="660" y="230" width="80" height="80" as="geometry" />
        </mxCell>
        <mxCell id="mBPwHPOisGUMl75ZWg9b-30" value="resultado final" style="ellipse;whiteSpace=wrap;html=1;aspect=fixed;" vertex="1" parent="1">
          <mxGeometry x="660" y="350" width="80" height="80" as="geometry" />
        </mxCell>
        <mxCell id="mBPwHPOisGUMl75ZWg9b-32" value="&lt;font style=&quot;font-size: 9px;&quot;&gt;grandes&lt;/font&gt;" style="text;html=1;align=center;verticalAlign=middle;resizable=0;points=[];autosize=1;strokeColor=none;fillColor=none;" vertex="1" parent="1">
          <mxGeometry x="130" y="240" width="60" height="30" as="geometry" />
        </mxCell>
        <mxCell id="mBPwHPOisGUMl75ZWg9b-35" style="edgeStyle=orthogonalEdgeStyle;rounded=0;orthogonalLoop=1;jettySize=auto;html=1;exitX=0.5;exitY=1;exitDx=0;exitDy=0;entryX=0.5;entryY=0;entryDx=0;entryDy=0;" edge="1" parent="1" source="mBPwHPOisGUMl75ZWg9b-33" target="mBPwHPOisGUMl75ZWg9b-34">
          <mxGeometry relative="1" as="geometry" />
        </mxCell>
        <mxCell id="mBPwHPOisGUMl75ZWg9b-33" value="define maior fator" style="ellipse;whiteSpace=wrap;html=1;aspect=fixed;" vertex="1" parent="1">
          <mxGeometry x="180" y="230" width="80" height="80" as="geometry" />
        </mxCell>
        <mxCell id="mBPwHPOisGUMl75ZWg9b-36" style="edgeStyle=orthogonalEdgeStyle;rounded=0;orthogonalLoop=1;jettySize=auto;html=1;exitX=1;exitY=0.5;exitDx=0;exitDy=0;entryX=0;entryY=0.5;entryDx=0;entryDy=0;" edge="1" parent="1" source="mBPwHPOisGUMl75ZWg9b-34" target="mBPwHPOisGUMl75ZWg9b-7">
          <mxGeometry relative="1" as="geometry" />
        </mxCell>
        <mxCell id="mBPwHPOisGUMl75ZWg9b-34" value="define valor da metade" style="ellipse;whiteSpace=wrap;html=1;aspect=fixed;" vertex="1" parent="1">
          <mxGeometry x="180" y="350" width="80" height="80" as="geometry" />
        </mxCell>
      </root>
    </mxGraphModel>
  </diagram>
</mxfile>
